<svg xmlns="http://www.w3.org/2000/svg" width="50" height="50" viewBox="0 0 50 50" fill="none">
  <path d="M25 5C26.3807 5 27.5 3.88071 27.5 2.5C27.5 1.11929 26.3807 0 25 0C23.6193 0 22.5 1.11929 22.5 2.5C22.5 3.88071 23.6193 5 25 5Z" fill="#C4FF4D"/>
  <path d="M35 17.5C36.3807 17.5 37.5 16.3807 37.5 15C37.5 13.6193 36.3807 12.5 35 12.5C33.6193 12.5 32.5 13.6193 32.5 15C32.5 16.3807 33.6193 17.5 35 17.5Z" fill="#BA8CFF"/>
  <path d="M15 17.5C16.3807 17.5 17.5 16.3807 17.5 15C17.5 13.6193 16.3807 12.5 15 12.5C13.6193 12.5 12.5 13.6193 12.5 15C12.5 16.3807 13.6193 17.5 15 17.5Z" fill="#BA8CFF"/>
  <path d="M25 10C26.3807 10 27.5 8.88071 27.5 7.5C27.5 6.11929 26.3807 5 25 5C23.6193 5 22.5 6.11929 22.5 7.5C22.5 8.88071 23.6193 10 25 10Z" fill="#C4FF4D"/>
  <path d="M25 45C26.3807 45 27.5 43.8807 27.5 42.5C27.5 41.1193 26.3807 40 25 40C23.6193 40 22.5 41.1193 22.5 42.5C22.5 43.8807 23.6193 45 25 45Z" fill="#C4FF4D"/>
  <path d="M25 50C26.3807 50 27.5 48.8807 27.5 47.5C27.5 46.1193 26.3807 45 25 45C23.6193 45 22.5 46.1193 22.5 47.5C22.5 48.8807 23.6193 50 25 50Z" fill="#C4FF4D"/>
  <path d="M25 10L15 15L25 20L35 15L25 10Z" stroke="#C4FF4D" stroke-width="2" stroke-linecap="round" stroke-linejoin="round"/>
  <path d="M25 20V40" stroke="#C4FF4D" stroke-width="2" stroke-linecap="round" stroke-linejoin="round"/>
  <path d="M15 15V30L25 35" stroke="#BA8CFF" stroke-width="2" stroke-linecap="round" stroke-linejoin="round"/>
  <path d="M35 15V30L25 35" stroke="#BA8CFF" stroke-width="2" stroke-linecap="round" stroke-linejoin="round"/>
</svg>
